# xmcd CD database file
# Copyright (C) 1993-1996 Ti Kan
#
# Track frame offsets:
#  183
#  18183
#  32558
#  45435
#  59620
#  82813
#  103333
#  117730
#  138783
#  157008
#  170383
#  185333
#  206535
#  222708
#  235133
#  253150
#  272883
#  286110
#  304528
#  317498
#
# Disc length: 4456 seconds
#
# Revision: 4
# Processed by: cddbd v1.5PL3 Copyright (c) Steve Scherf et al.
# Submitted via: Advanced CD Ripper Pro 2.0
#
DISCID=1b116614
DTITLE=John Denver - The Story
DYEAR=1994
DGENRE=Humour
TTITLE0=Leaving On A Jet Plane
TTITLE1=Rhymes And Reasons
TTITLE2=Follow Me
TTITLE3=Take Me Home Country Roads
TTITLE4=Sunshine On My Shoulders
TTITLE5=Poems, Prayers And Promises
TTITLE6=Starwood In Aspen
TTITLE7=Rocky Mountain High
TTITLE8=Farewell Andromeda
TTITLE9=Annie's Song
TTITLE10=Thank God I'm A Country Boy
TTITLE11=Back Home Again
TTITLE12=Calypso
TTITLE13=Baby You Look Good To Me Tonight
TTITLE14=Dancing With The Mountains
TTITLE15=Hold On Tightly
TTITLE16=Perhaps Love (With Placido Domingo)
TTITLE17=Dreamland Express
TTITLE18=Love Again (With Sylvie Vartan)
TTITLE19=Never A Doubt
EXTD=
EXTT0=
EXTT1=
EXTT2=
EXTT3=
EXTT4=
EXTT5=
EXTT6=
EXTT7=
EXTT8=
EXTT9=
EXTT10=
EXTT11=
EXTT12=
EXTT13=
EXTT14=
EXTT15=
EXTT16=
EXTT17=
EXTT18=
EXTT19=
PLAYORDER=
